<svg width="32" height="32" viewBox="0 0 32 32" fill="none" xmlns="http://www.w3.org/2000/svg">
<path d="M17.036 31.9999C16.9047 32.0002 16.7746 31.9747 16.6532 31.9246C16.5318 31.8746 16.4215 31.801 16.3286 31.7083C16.2357 31.6155 16.162 31.5052 16.1118 31.3839C16.0616 31.2626 16.0358 31.1325 16.036 31.0012C16.036 30.7346 16.14 30.4826 16.328 30.2932L28.5893 18.0012H23C22.7348 18.0012 22.4804 17.8959 22.2929 17.7083C22.1054 17.5208 22 17.2664 22 17.0012C22 16.736 22.1054 16.4817 22.2929 16.2941C22.4804 16.1066 22.7348 16.0012 23 16.0012H30.9987C31.1295 16.0008 31.259 16.0262 31.38 16.0759C31.5092 16.1289 31.6257 16.2085 31.722 16.3096C31.8182 16.4107 31.8921 16.531 31.9387 16.6626C31.9786 16.7696 31.9994 16.8829 32 16.9972V24.9999C32 25.2651 31.8947 25.5195 31.7071 25.707C31.5196 25.8945 31.2652 25.9999 31 25.9999C30.7348 25.9999 30.4804 25.8945 30.2929 25.707C30.1054 25.5195 30 25.2651 30 24.9999V19.4199L17.744 31.7066C17.6514 31.8 17.5411 31.8741 17.4195 31.9245C17.298 31.9748 17.1676 32.0005 17.036 31.9999Z" fill="#F8A766"/>
<path d="M1 32C0.734784 32 0.48043 31.8946 0.292893 31.7071C0.105357 31.5196 0 31.2652 0 31L0 23C0 22.7348 0.105357 22.4804 0.292893 22.2929C0.48043 22.1054 0.734784 22 1 22H8V15C8 14.7348 8.10536 14.4804 8.29289 14.2929C8.48043 14.1054 8.73478 14 9 14H16V7C16 6.73478 16.1054 6.48043 16.2929 6.29289C16.4804 6.10536 16.7348 6 17 6H24V1C24 0.734784 24.1054 0.48043 24.2929 0.292893C24.4804 0.105357 24.7348 0 25 0C25.2652 0 25.5196 0.105357 25.7071 0.292893C25.8946 0.48043 26 0.734784 26 1V7C26 7.26522 25.8946 7.51957 25.7071 7.70711C25.5196 7.89464 25.2652 8 25 8H18V15C18 15.2652 17.8946 15.5196 17.7071 15.7071C17.5196 15.8946 17.2652 16 17 16H10V23C10 23.2652 9.89464 23.5196 9.70711 23.7071C9.51957 23.8946 9.26522 24 9 24H2V31C2 31.2652 1.89464 31.5196 1.70711 31.7071C1.51957 31.8946 1.26522 32 1 32Z" fill="#F8A766"/>
</svg>
