<svg width="32" height="32" viewBox="0 0 32 32" fill="none" xmlns="http://www.w3.org/2000/svg">
<g clip-path="url(#clip0)">
<path d="M9.77602 32C7.64381 32.0061 5.57916 31.2524 3.95233 29.8741C2.3255 28.4957 1.24291 26.5829 0.89869 24.4787L0.0133566 19.164C-0.0104588 19.0208 -0.00278959 18.874 0.035831 18.7341C0.0744515 18.5941 0.143097 18.4642 0.236994 18.3534C0.330892 18.2426 0.447789 18.1536 0.579558 18.0926C0.711328 18.0316 0.854808 18 1.00002 18H6.17202C6.38013 17.416 6.76345 16.9106 7.2696 16.5526C7.77576 16.1946 8.38008 16.0017 9.00002 16H15C16.28 16 17.4107 16.82 17.828 18H28V5.00001C27.9993 4.20458 27.683 3.44193 27.1206 2.87947C26.5581 2.31702 25.7955 2.00072 25 2.00001C23.668 2.00001 22.508 2.88935 22.132 4.13201C23.2315 4.38782 24.2121 5.00807 24.9144 5.8919C25.6167 6.77573 25.9993 7.87115 26 9.00001C26 9.26523 25.8947 9.51958 25.7071 9.70712C25.5196 9.89466 25.2652 10 25 10H17C16.7348 10 16.4805 9.89466 16.2929 9.70712C16.1054 9.51958 16 9.26523 16 9.00001C15.9978 7.83218 16.4053 6.70056 17.1516 5.80227C17.8978 4.90397 18.9356 4.29592 20.084 4.08401C20.2954 2.93533 20.9034 1.8973 21.8018 1.15095C22.7002 0.404593 23.832 -0.00272892 25 1.37608e-05C26.3257 0.00142553 27.5966 0.528663 28.534 1.46604C29.4714 2.40341 29.9986 3.67436 30 5.00001V18H31C31.1452 18 31.2887 18.0316 31.4205 18.0926C31.5523 18.1536 31.6692 18.2426 31.7631 18.3534C31.857 18.4642 31.9256 18.5941 31.9642 18.7341C32.0028 18.874 32.0105 19.0208 31.9867 19.164L31.1014 24.4787C30.7563 26.5828 29.6733 28.4953 28.0464 29.8736C26.4195 31.2518 24.3549 32.0056 22.2227 32H9.77602ZM2.87202 24.1507C3.13983 25.7871 3.98181 27.2747 5.24699 28.3466C6.51217 29.4185 8.11781 30.0047 9.77602 30H22.2214C23.8797 30.0047 25.4855 29.4186 26.7509 28.3467C28.0164 27.2748 28.8586 25.7872 29.1267 24.1507L29.82 20H18V26C18 27.1027 17.1027 28 16 28H8.00002C6.89736 28 6.00002 27.1027 6.00002 26V20H2.18002L2.87202 24.1507ZM9.00002 18C8.73481 18 8.48045 18.1054 8.29292 18.2929C8.10538 18.4804 8.00002 18.7348 8.00002 19V26H16V19C16 18.7348 15.8947 18.4804 15.7071 18.2929C15.5196 18.1054 15.2652 18 15 18H9.00002ZM23.828 8.00001C23.4107 6.82801 22.2827 6.00001 21 6.00001C19.7174 6.00001 18.588 6.82801 18.172 8.00001H23.828Z" fill="#F8A766"/>
</g>
<defs>
<clipPath id="clip0">
<rect width="32" height="32" fill="white"/>
</clipPath>
</defs>
</svg>
