<svg width="32" height="32" viewBox="0 0 32 32" fill="none" xmlns="http://www.w3.org/2000/svg">
<g clip-path="url(#clip0)">
<path d="M0.999902 11.9999C0.835257 12 0.67314 11.9594 0.527982 11.8817C0.382823 11.804 0.259126 11.6916 0.167902 11.5545C0.0199015 11.3319 -0.0320985 11.0652 0.0199015 10.8039C0.0453738 10.675 0.0960659 10.5525 0.169061 10.4434C0.242057 10.3342 0.335915 10.2406 0.445235 10.1679L15.4452 0.167857C15.6097 0.0588606 15.8026 0.000732422 15.9999 0.000732422C16.1972 0.000732422 16.3901 0.0588606 16.5546 0.167857L31.5546 10.1679C31.6644 10.2402 31.7587 10.3336 31.8322 10.4427C31.9057 10.5518 31.9568 10.6744 31.9826 10.8033C32.0084 10.9323 32.0083 11.0651 31.9825 11.194C31.9566 11.323 31.9054 11.4455 31.8319 11.5545C31.7592 11.6639 31.6656 11.7579 31.5565 11.831C31.4474 11.9042 31.3249 11.9551 31.1961 11.9809C31.0673 12.0067 30.9347 12.0068 30.8058 11.9812C30.677 11.9556 30.5544 11.9049 30.4452 11.8319L15.9999 2.20119L1.55457 11.8319C1.39056 11.9419 1.1974 12.0004 0.999902 11.9999Z" fill="#F8A766"/>
<path d="M25 32C23.72 32 22.5893 31.18 22.172 30H11.8293C11.4107 31.18 10.28 32 9 32C7.72 32 6.58933 31.18 6.172 30H3C2.20468 29.999 1.44223 29.6825 0.879849 29.1202C0.317469 28.5578 0.00105832 27.7953 0 27L0 25C0.00141177 23.6744 0.528649 22.4034 1.46603 21.466C2.4034 20.5287 3.67435 20.0014 5 20H7.38133L9.548 15.6587C9.79571 15.1593 10.1783 14.7393 10.6524 14.4461C11.1265 14.153 11.6732 13.9985 12.2307 14H22.764C23.908 14 24.936 14.6347 25.448 15.6587L27.6387 20.0413C28.8428 20.1996 29.9487 20.7895 30.7508 21.7014C31.5529 22.6134 31.9968 23.7855 32 25V27C31.9993 27.7954 31.683 28.5581 31.1205 29.1206C30.5581 29.683 29.7954 29.9993 29 30H27.828C27.6199 30.584 27.2366 31.0895 26.7304 31.4474C26.2243 31.8054 25.6199 31.9984 25 32ZM25 28C24.8685 28.0002 24.7383 28.0263 24.6169 28.0767C24.4955 28.1272 24.3852 28.2011 24.2923 28.2942C24.1995 28.3873 24.1259 28.4978 24.0757 28.6194C24.0256 28.7409 23.9998 28.8712 24 29.0027C24.0002 29.1342 24.0262 29.2644 24.0767 29.3858C24.1272 29.5072 24.2011 29.6175 24.2942 29.7103C24.3873 29.8032 24.4978 29.8768 24.6194 29.927C24.7409 29.9771 24.8712 30.0029 25.0027 30.0027C25.2682 30.0023 25.5228 29.8965 25.7103 29.7085C25.8979 29.5204 26.003 29.2656 26.0027 29C26.0023 28.7344 25.8965 28.4799 25.7084 28.2924C25.5204 28.1048 25.2656 27.9997 25 28ZM9 28C8.8685 28.0002 8.73833 28.0263 8.61691 28.0767C8.49549 28.1272 8.3852 28.2011 8.29234 28.2942C8.19948 28.3873 8.12587 28.4978 8.07571 28.6194C8.02555 28.7409 7.99983 28.8712 8 29.0027C8.00018 29.1342 8.02625 29.2644 8.07673 29.3858C8.12722 29.5072 8.20112 29.6175 8.29423 29.7103C8.38733 29.8032 8.49782 29.8768 8.61937 29.927C8.74093 29.9771 8.87117 30.0029 9.00267 30.0027C9.26824 30.0023 9.52279 29.8965 9.71033 29.7085C9.89786 29.5204 10.003 29.2656 10.0027 29C10.0023 28.7344 9.89648 28.4799 9.70844 28.2924C9.5204 28.1048 9.26557 27.9997 9 28ZM29 28C29.2652 28 29.5196 27.8947 29.7071 27.7071C29.8946 27.5196 30 27.2652 30 27V25C29.9993 24.2046 29.683 23.4419 29.1205 22.8795C28.5581 22.317 27.7954 22.0007 27 22H5C4.20457 22.0007 3.44192 22.317 2.87946 22.8795C2.317 23.4419 2.00071 24.2046 2 25V27C2 27.552 2.44933 28 3 28H6.172C6.59067 26.82 7.72133 26 9 26C10.2787 26 11.4107 26.82 11.828 28H22.1707C22.5893 26.82 23.72 26 24.9987 26C26.2773 26 27.4093 26.82 27.8267 28H29ZM25.3827 20L23.66 16.552C23.5771 16.3855 23.4492 16.2456 23.2909 16.148C23.1325 16.0505 22.95 15.9992 22.764 16H12.2307C12.045 15.9992 11.8629 16.0505 11.705 16.1481C11.547 16.2457 11.4197 16.3856 11.3373 16.552L9.61733 20H25.3827Z" fill="#F8A766"/>
</g>
<defs>
<clipPath id="clip0">
<rect width="32" height="32" fill="white"/>
</clipPath>
</defs>
</svg>
