<svg width="32" height="32" viewBox="0 0 32 32" fill="none" xmlns="http://www.w3.org/2000/svg">
<g clip-path="url(#clip0)">
<path d="M19.004 30.5935C18.7388 30.5935 18.4845 30.4881 18.2969 30.3006C18.1094 30.1131 18.004 29.8587 18.004 29.5935V21.5935C18.004 21.3283 17.8987 21.0739 17.7111 20.8864C17.5236 20.6989 17.2692 20.5935 17.004 20.5935H15.004C14.7388 20.5935 14.4845 20.6989 14.2969 20.8864C14.1094 21.0739 14.004 21.3283 14.004 21.5935V29.5935C14.004 29.8587 13.8987 30.1131 13.7111 30.3006C13.5236 30.4881 13.2692 30.5935 13.004 30.5935H5.00403C4.73881 30.5935 4.48446 30.4881 4.29692 30.3006C4.10939 30.1131 4.00403 29.8587 4.00403 29.5935V18.5935C4.00403 18.3283 4.10939 18.0739 4.29692 17.8864C4.48446 17.6989 4.73881 17.5935 5.00403 17.5935C5.26924 17.5935 5.5236 17.6989 5.71113 17.8864C5.89867 18.0739 6.00403 18.3283 6.00403 18.5935V28.5935H12.004V21.5935C12.0047 20.7981 12.321 20.0354 12.8835 19.473C13.4459 18.9105 14.2086 18.5942 15.004 18.5935H17.004C17.7995 18.5942 18.5621 18.9105 19.1246 19.473C19.687 20.0354 20.0033 20.7981 20.004 21.5935V28.5935H26.004V18.5935C26.004 18.3283 26.1094 18.0739 26.2969 17.8864C26.4845 17.6989 26.7388 17.5935 27.004 17.5935C27.2692 17.5935 27.5236 17.6989 27.7111 17.8864C27.8987 18.0739 28.004 18.3283 28.004 18.5935V29.5935C28.004 29.8587 27.8987 30.1131 27.7111 30.3006C27.5236 30.4881 27.2692 30.5935 27.004 30.5935H19.004Z" fill="#F8A766"/>
<path d="M1.00404 17.5934C0.806681 17.5923 0.614055 17.5329 0.450301 17.4227C0.286546 17.3125 0.158947 17.1565 0.0834928 16.9741C0.00803846 16.7917 -0.0119153 16.5912 0.0261319 16.3975C0.0641791 16.2038 0.158535 16.0257 0.297376 15.8854L13.8827 2.30143C14.1605 2.02191 14.4911 1.8004 14.8553 1.64979C15.2195 1.49917 15.61 1.42245 16.004 1.4241C16.8054 1.4241 17.5587 1.7361 18.1254 2.30143L31.712 15.8881C31.8509 16.0284 31.9452 16.2065 31.9833 16.4002C32.0213 16.5938 32.0014 16.7944 31.9259 16.9768C31.8505 17.1591 31.7229 17.3152 31.5591 17.4254C31.3954 17.5355 31.2027 17.5949 31.0054 17.5961C30.874 17.5965 30.7439 17.5708 30.6226 17.5204C30.5013 17.47 30.3912 17.3961 30.2987 17.3028L16.712 3.71476C16.6194 3.62152 16.5091 3.54752 16.3878 3.49703C16.2664 3.44653 16.1362 3.42053 16.0047 3.42053C15.8732 3.42053 15.7431 3.44653 15.6217 3.49703C15.5003 3.54752 15.3901 3.62152 15.2974 3.71476L1.71071 17.3001C1.61825 17.3934 1.50816 17.4674 1.38684 17.5177C1.26552 17.5681 1.1354 17.5938 1.00404 17.5934Z" fill="#F8A766"/>
</g>
<defs>
<clipPath id="clip0">
<rect width="32" height="32" fill="white"/>
</clipPath>
</defs>
</svg>
