<svg width="88" height="88" viewBox="0 0 88 88" fill="none" xmlns="http://www.w3.org/2000/svg">
<circle opacity="0.95" cx="44" cy="44" r="44" fill="white"/>
<path d="M30.2619 39.9C31.4405 39.9 32.3679 40.1817 33.0439 40.745C33.7199 41.3083 34.0579 42.084 34.0579 43.072C34.0579 44.06 33.7199 44.8357 33.0439 45.399C32.3679 45.9623 31.4405 46.244 30.2619 46.244H28.0129V49H26.7129V39.9H30.2619ZM30.2229 45.113C31.0462 45.113 31.6745 44.9397 32.1079 44.593C32.5412 44.2377 32.7579 43.7307 32.7579 43.072C32.7579 42.4133 32.5412 41.9107 32.1079 41.564C31.6745 41.2087 31.0462 41.031 30.2229 41.031H28.0129V45.113H30.2229ZM37.2677 39.9H38.5677V47.869H43.4947V49H37.2677V39.9ZM52.1226 46.725H47.2866L46.2856 49H44.9466L49.0676 39.9H50.3546L54.4886 49H53.1236L52.1226 46.725ZM51.6676 45.685L49.7046 41.226L47.7416 45.685H51.6676ZM60.0842 45.854V49H58.7972V45.828L55.1832 39.9H56.5742L59.4862 44.697L62.4112 39.9H63.6982L60.0842 45.854Z" fill="#1072B9"/>
</svg>
