<svg width="24" height="24" viewBox="0 0 24 24" fill="none" xmlns="http://www.w3.org/2000/svg">
<path d="M10.2514 17.9999C10.0872 18.0003 9.92447 17.9695 9.77279 17.909C9.6211 17.8486 9.48346 17.7598 9.36786 17.6479L4.36675 12.8479C4.13003 12.6223 4 12.3199 4 11.9999C4 11.6799 4.13003 11.3775 4.36675 11.1519C4.6018 10.9247 4.91687 10.7999 5.25028 10.7999C5.58368 10.7999 5.89875 10.9247 6.13381 11.1519L10.1164 14.9727L16.7528 6.47988C16.8698 6.33139 17.0209 6.21082 17.1944 6.12757C17.3679 6.04431 17.5591 6.00062 17.753 5.99988C17.9848 6.00076 18.2118 6.0634 18.4087 6.1808C18.6056 6.2982 18.7647 6.46576 18.8682 6.66481C18.9717 6.86387 19.0156 7.0866 18.9951 7.30819C18.9745 7.52979 18.8902 7.74154 18.7516 7.91988L11.2499 17.5199C11.1336 17.6687 10.9829 17.7895 10.8096 17.8728C10.6363 17.9561 10.4452 17.9996 10.2514 17.9999Z" fill="white"/>
</svg>
