<svg width="24" height="24" viewBox="0 0 24 24" fill="none" xmlns="http://www.w3.org/2000/svg">
<g clip-path="url(#clip0)">
<path d="M5.25 24C5.1514 24.0004 5.05369 23.9813 4.96252 23.9437C4.87135 23.9062 4.78851 23.8509 4.71879 23.7812C4.64906 23.7115 4.59383 23.6287 4.55628 23.5375C4.51873 23.4463 4.4996 23.3486 4.5 23.25V19.5H2.25C1.65343 19.4995 1.08144 19.2622 0.659595 18.8404C0.237753 18.4186 0.000529583 17.8466 0 17.25L0 2.25C0.000529583 1.65343 0.237753 1.08144 0.659595 0.659595C1.08144 0.237753 1.65343 0.000529583 2.25 0L21.75 0C22.3466 0.000529583 22.9186 0.237753 23.3404 0.659595C23.7622 1.08144 23.9995 1.65343 24 2.25V17.25C23.9995 17.8466 23.7622 18.4186 23.3404 18.8404C22.9186 19.2622 22.3466 19.4995 21.75 19.5H11.5L5.7 23.85C5.57008 23.9472 5.41224 23.9998 5.25 24ZM2.25 1.5C2.05109 1.5 1.86032 1.57902 1.71967 1.71967C1.57902 1.86032 1.5 2.05109 1.5 2.25V17.25C1.5 17.664 1.836 18 2.25 18H5.25C5.44891 18 5.63968 18.079 5.78033 18.2197C5.92098 18.3603 6 18.5511 6 18.75V21.75L10.8 18.15C10.9299 18.0528 11.0878 18.0002 11.25 18H21.75C21.9489 18 22.1397 17.921 22.2803 17.7803C22.421 17.6397 22.5 17.4489 22.5 17.25V2.25C22.5 2.05109 22.421 1.86032 22.2803 1.71967C22.1397 1.57902 21.9489 1.5 21.75 1.5H2.25Z" fill="#F8A766"/>
<path d="M12 12C11.8011 12 11.6103 11.921 11.4697 11.7803C11.329 11.6397 11.25 11.4489 11.25 11.25V10.994C11.25 10.5286 11.3942 10.0747 11.6629 9.69467C11.9315 9.31465 12.3113 9.02724 12.75 8.87198C13.1883 8.71639 13.5677 8.42904 13.8363 8.04931C14.1048 7.66958 14.2494 7.21607 14.25 6.75098C14.25 6.15098 14.016 5.58598 13.59 5.16098C13.3819 4.95114 13.1342 4.78474 12.8612 4.67144C12.5883 4.55814 12.2955 4.50019 12 4.50098C11.399 4.50098 10.834 4.73498 10.409 5.15998C10.1993 5.36816 10.0331 5.61592 9.92 5.88887C9.80687 6.16182 9.74909 6.45452 9.75 6.74998C9.75 6.94889 9.67098 7.13965 9.53033 7.28031C9.38968 7.42096 9.19891 7.49998 9 7.49998C8.80109 7.49998 8.61032 7.42096 8.46967 7.28031C8.32902 7.13965 8.25 6.94889 8.25 6.74998C8.25132 5.75591 8.64687 4.80296 9.34987 4.10014C10.0529 3.39733 11.0059 3.00203 12 3.00098C13.002 3.00098 13.944 3.39098 14.652 4.09998C15.0012 4.44754 15.278 4.86087 15.4665 5.31607C15.6549 5.77127 15.7513 6.25931 15.75 6.75198C15.749 7.52716 15.5082 8.28305 15.0606 8.91595C14.613 9.54885 13.9806 10.0278 13.25 10.287C13.1038 10.339 12.9773 10.4349 12.8877 10.5617C12.7982 10.6885 12.7501 10.8398 12.75 10.995V11.251C12.7497 11.4497 12.6706 11.6402 12.53 11.7807C12.3894 11.9211 12.1987 12 12 12Z" fill="#F8A766"/>
<path d="M12 15.75C12.6213 15.75 13.125 15.2463 13.125 14.625C13.125 14.0037 12.6213 13.5 12 13.5C11.3787 13.5 10.875 14.0037 10.875 14.625C10.875 15.2463 11.3787 15.75 12 15.75Z" fill="#F8A766"/>
</g>
<defs>
<clipPath id="clip0">
<rect width="24" height="24" fill="white"/>
</clipPath>
</defs>
</svg>
