<svg width="32" height="32" viewBox="0 0 32 32" fill="none" xmlns="http://www.w3.org/2000/svg">
<path d="M13.7617 17.5003C13.5627 17.5003 13.372 17.4213 13.2313 17.2806C13.0907 17.14 13.0117 16.9492 13.0117 16.7503C13.0117 16.5514 13.0907 16.3606 13.2313 16.22C13.372 16.0793 13.5627 16.0003 13.7617 16.0003H15.2616C15.4606 16.0003 15.6513 16.0793 15.792 16.22C15.9326 16.3606 16.0116 16.5514 16.0116 16.7503C16.0116 16.9492 15.9326 17.14 15.792 17.2806C15.6513 17.4213 15.4606 17.5003 15.2616 17.5003H13.7617Z" fill="#F8A766"/>
<path d="M18.2616 28.0017C18.0627 28.0017 17.8719 27.9226 17.7313 27.782C17.5906 27.6413 17.5116 27.4506 17.5116 27.2517V16.0017C17.5116 14.3478 16.1656 13.0018 14.5116 13.0018C12.8576 13.0018 11.5116 14.3478 11.5116 16.0017V27.2497C11.5116 27.4486 11.4326 27.6393 11.292 27.78C11.1513 27.9206 10.9606 27.9997 10.7617 27.9997C10.5627 27.9997 10.372 27.9206 10.2313 27.78C10.0907 27.6393 10.0117 27.4486 10.0117 27.2497V16.0017C10.0117 13.5208 12.0306 11.5018 14.5116 11.5018C16.9926 11.5018 19.0116 13.5208 19.0116 16.0017V27.2517C19.0116 27.4506 18.9326 27.6413 18.7919 27.782C18.6513 27.9226 18.4605 28.0017 18.2616 28.0017Z" fill="#F8A766"/>
<path d="M21.2612 11.5003C21.0623 11.5003 20.8716 11.4213 20.7309 11.2806C20.5903 11.14 20.5112 10.9492 20.5112 10.7503C20.5112 10.5514 20.5903 10.3606 20.7309 10.22C20.8716 10.0793 21.0623 10.0003 21.2612 10.0003H26.5112V9.67833C23.3824 6.99368 19.3989 5.51267 15.2763 5.50136C11.6853 5.50136 8.10632 6.65135 5.19934 8.73933C5.1195 8.79908 5.02855 8.8423 4.9318 8.86647C4.83506 8.89065 4.73446 8.89528 4.63591 8.88011C4.53735 8.86494 4.44281 8.83027 4.35781 8.77813C4.27281 8.72598 4.19906 8.65741 4.14088 8.57643C4.0827 8.49544 4.04126 8.40366 4.01897 8.30647C3.99668 8.20927 3.994 8.10861 4.01109 8.01036C4.02817 7.91212 4.06467 7.81827 4.11846 7.7343C4.17225 7.65033 4.24224 7.57794 4.32434 7.52134C7.79616 5.04378 12.0035 3.81249 16.2633 4.02737C19.971 4.23597 23.5353 5.53187 26.5112 7.75334V4.75036C26.5112 4.55145 26.5902 4.36069 26.7309 4.22003C26.8715 4.07938 27.0623 4.00037 27.2612 4.00037C27.4601 4.00037 27.6509 4.07938 27.7915 4.22003C27.9322 4.36069 28.0112 4.55145 28.0112 4.75036V10.7503C28.0112 10.9492 27.9322 11.14 27.7915 11.2806C27.6509 11.4213 27.4601 11.5003 27.2612 11.5003H21.2612Z" fill="#F8A766"/>
</svg>
