<svg width="24" height="24" viewBox="0 0 24 24" fill="none" xmlns="http://www.w3.org/2000/svg">
<g clip-path="url(#clip0)">
<path d="M5.24998 22.4971C5.15146 22.4974 5.05387 22.4781 4.96288 22.4403C4.87189 22.4025 4.78933 22.347 4.71998 22.2771L0.219981 17.7771C0.150002 17.707 0.0946023 17.6237 0.0569806 17.5321L0.0479806 17.5081C-0.0160749 17.34 -0.0160749 17.1542 0.0479806 16.9861L0.0599806 16.9551C0.097284 16.8661 0.151638 16.7852 0.219981 16.7171L4.71998 12.2171C4.78921 12.1468 4.87171 12.091 4.9627 12.0529C5.05369 12.0148 5.15134 11.9952 5.24998 11.9952C5.34862 11.9952 5.44627 12.0148 5.53726 12.0529C5.62825 12.091 5.71076 12.1468 5.77998 12.2171C5.92198 12.3581 5.99998 12.5471 5.99998 12.7471C5.99998 12.9471 5.92198 13.1361 5.77998 13.2771L2.55998 16.4971H15.75C19.472 16.4971 22.5 13.4691 22.5 9.74707C22.5 6.02507 19.472 2.99707 15.75 2.99707H9.74998C9.55107 2.99707 9.3603 2.91805 9.21965 2.7774C9.079 2.63675 8.99998 2.44598 8.99998 2.24707C8.99998 2.04816 9.079 1.85739 9.21965 1.71674C9.3603 1.57609 9.55107 1.49707 9.74998 1.49707H15.75C20.299 1.49707 24 5.19807 24 9.74707C24 14.2961 20.299 17.9971 15.75 17.9971H2.56098L5.78098 21.2171C5.85094 21.2865 5.90645 21.3691 5.94429 21.4601C5.98214 21.5511 6.00158 21.6487 6.00149 21.7473C6.0014 21.8458 5.98177 21.9434 5.94375 22.0343C5.90573 22.1253 5.85007 22.2078 5.77998 22.2771C5.71064 22.347 5.62807 22.4025 5.53708 22.4403C5.44609 22.4781 5.3485 22.4974 5.24998 22.4971Z" fill="#F8A766"/>
</g>
<defs>
<clipPath id="clip0">
<rect width="24" height="24" fill="white"/>
</clipPath>
</defs>
</svg>
