<svg width="24" height="24" viewBox="0 0 24 24" fill="none" xmlns="http://www.w3.org/2000/svg">
<path d="M12 17.25C10.6081 17.2484 9.27366 16.6948 8.28944 15.7106C7.30522 14.7263 6.75159 13.3919 6.75 12C6.75159 10.6081 7.30522 9.27366 8.28944 8.28944C9.27366 7.30522 10.6081 6.75159 12 6.75C13.3919 6.75159 14.7263 7.30522 15.7106 8.28944C16.6948 9.27366 17.2484 10.6081 17.25 12C17.2484 13.3919 16.6948 14.7263 15.7106 15.7106C14.7263 16.6948 13.3919 17.2484 12 17.25ZM12 8.25C11.0058 8.25106 10.0526 8.64649 9.34952 9.34952C8.64649 10.0526 8.25106 11.0058 8.25 12C8.25106 12.9942 8.64649 13.9474 9.34952 14.6505C10.0526 15.3535 11.0058 15.7489 12 15.75C12.9942 15.7489 13.9474 15.3535 14.6505 14.6505C15.3535 13.9474 15.7489 12.9942 15.75 12C15.7489 11.0058 15.3535 10.0526 14.6505 9.34952C13.9474 8.64649 12.9942 8.25106 12 8.25Z" fill="#F8A766"/>
<path d="M12 5.25C11.8011 5.25 11.6103 5.17098 11.4697 5.03033C11.329 4.88968 11.25 4.69891 11.25 4.5V0.75C11.25 0.551088 11.329 0.360322 11.4697 0.21967C11.6103 0.0790176 11.8011 0 12 0C12.1989 0 12.3897 0.0790176 12.5303 0.21967C12.671 0.360322 12.75 0.551088 12.75 0.75V4.5C12.75 4.69891 12.671 4.88968 12.5303 5.03033C12.3897 5.17098 12.1989 5.25 12 5.25Z" fill="#F8A766"/>
<path d="M12 24C11.8011 24 11.6103 23.921 11.4697 23.7803C11.329 23.6397 11.25 23.4489 11.25 23.25V19.5C11.25 19.3011 11.329 19.1103 11.4697 18.9697C11.6103 18.829 11.8011 18.75 12 18.75C12.1989 18.75 12.3897 18.829 12.5303 18.9697C12.671 19.1103 12.75 19.3011 12.75 19.5V23.25C12.75 23.4489 12.671 23.6397 12.5303 23.7803C12.3897 23.921 12.1989 24 12 24Z" fill="#F8A766"/>
<path d="M19.5 12.75C19.3011 12.75 19.1103 12.671 18.9697 12.5303C18.829 12.3897 18.75 12.1989 18.75 12C18.75 11.8011 18.829 11.6103 18.9697 11.4697C19.1103 11.329 19.3011 11.25 19.5 11.25H23.25C23.4489 11.25 23.6397 11.329 23.7803 11.4697C23.921 11.6103 24 11.8011 24 12C24 12.1989 23.921 12.3897 23.7803 12.5303C23.6397 12.671 23.4489 12.75 23.25 12.75H19.5Z" fill="#F8A766"/>
<path d="M0.75 12.75C0.551088 12.75 0.360322 12.671 0.21967 12.5303C0.0790176 12.3897 0 12.1989 0 12C0 11.8011 0.0790176 11.6103 0.21967 11.4697C0.360322 11.329 0.551088 11.25 0.75 11.25H4.5C4.69891 11.25 4.88968 11.329 5.03033 11.4697C5.17098 11.6103 5.25 11.8011 5.25 12C5.25 12.1989 5.17098 12.3897 5.03033 12.5303C4.88968 12.671 4.69891 12.75 4.5 12.75H0.75Z" fill="#F8A766"/>
<path d="M17.25 7.5C17.1515 7.5003 17.0539 7.481 16.9629 7.44323C16.8719 7.40546 16.7893 7.34998 16.72 7.28C16.578 7.139 16.5 6.95 16.5 6.75C16.5 6.55 16.578 6.361 16.72 6.22L19.72 3.22C19.861 3.078 20.05 3 20.25 3C20.45 3 20.639 3.078 20.78 3.22C20.922 3.361 21 3.55 21 3.75C21 3.95 20.922 4.139 20.78 4.28L17.78 7.28C17.7107 7.34998 17.6281 7.40546 17.5371 7.44323C17.4461 7.481 17.3485 7.5003 17.25 7.5Z" fill="#F8A766"/>
<path d="M3.75001 20.9999C3.60199 20.999 3.45752 20.9545 3.3347 20.8719C3.21189 20.7892 3.11619 20.6722 3.0596 20.5354C3.00301 20.3987 2.98804 20.2482 3.01658 20.103C3.04511 19.9577 3.11588 19.8241 3.22001 19.7189L6.22001 16.7189C6.28924 16.6487 6.37174 16.5929 6.46273 16.5548C6.55372 16.5167 6.65137 16.4971 6.75001 16.4971C6.84865 16.4971 6.9463 16.5167 7.03729 16.5548C7.12828 16.5929 7.21079 16.6487 7.28001 16.7189C7.42028 16.8599 7.49903 17.0506 7.49903 17.2494C7.49903 17.4483 7.42028 17.639 7.28001 17.7799L4.28001 20.7799C4.21067 20.8499 4.1281 20.9054 4.03711 20.9432C3.94612 20.9809 3.84853 21.0002 3.75001 20.9999Z" fill="#F8A766"/>
<path d="M20.25 21C20.1515 21.0003 20.0539 20.981 19.9629 20.9433C19.872 20.9055 19.7894 20.85 19.72 20.78L16.72 17.78C16.6159 17.6748 16.5451 17.5412 16.5166 17.396C16.4881 17.2507 16.503 17.1003 16.5596 16.9635C16.6162 16.8267 16.7119 16.7097 16.8347 16.6271C16.9576 16.5444 17.102 16.4999 17.25 16.499C17.45 16.499 17.639 16.577 17.78 16.719L20.78 19.719C20.8842 19.8242 20.9549 19.9578 20.9835 20.1031C21.012 20.2483 20.997 20.3988 20.9405 20.5355C20.8839 20.6723 20.7882 20.7893 20.6653 20.872C20.5425 20.9546 20.3981 20.9991 20.25 21Z" fill="#F8A766"/>
<path d="M6.75 7.5C6.65148 7.5003 6.55389 7.481 6.4629 7.44323C6.37191 7.40546 6.28935 7.34998 6.22 7.28L3.22 4.28C3.078 4.139 3 3.95 3 3.75C3 3.55 3.078 3.361 3.22 3.22C3.361 3.078 3.55 3 3.75 3C3.95 3 4.139 3.078 4.28 3.22L7.28 6.22C7.422 6.361 7.5 6.55 7.5 6.75C7.5 6.95 7.422 7.139 7.28 7.28C7.21065 7.34998 7.12809 7.40546 7.0371 7.44323C6.94611 7.481 6.84852 7.5003 6.75 7.5Z" fill="#F8A766"/>
</svg>
