<svg width="24" height="24" viewBox="0 0 24 24" fill="none" xmlns="http://www.w3.org/2000/svg">
<g clip-path="url(#clip0)">
<path d="M5.25 22.4971C5.15148 22.4974 5.05389 22.4781 4.9629 22.4403C4.87191 22.4025 4.78934 22.347 4.72 22.2771L0.219996 17.7771C0.150017 17.707 0.0946176 17.6237 0.0569958 17.5321L0.0479958 17.5081C-0.0160596 17.34 -0.0160596 17.1542 0.0479958 16.9861L0.0599958 16.9551C0.0972993 16.8661 0.151653 16.7852 0.219996 16.7171L4.72 12.2171C4.78922 12.1468 4.87173 12.091 4.96272 12.0529C5.0537 12.0148 5.15136 11.9952 5.25 11.9952C5.34863 11.9952 5.44629 12.0148 5.53728 12.0529C5.62826 12.091 5.71077 12.1468 5.78 12.2171C5.922 12.3581 6 12.5471 6 12.7471C6 12.9471 5.922 13.1361 5.78 13.2771L2.56 16.4971H15.75C19.472 16.4971 22.5 13.4691 22.5 9.74707C22.5 6.02507 19.472 2.99707 15.75 2.99707H9.75C9.55108 2.99707 9.36032 2.91805 9.21967 2.7774C9.07901 2.63675 9 2.44598 9 2.24707C9 2.04816 9.07901 1.85739 9.21967 1.71674C9.36032 1.57609 9.55108 1.49707 9.75 1.49707H15.75C20.299 1.49707 24 5.19807 24 9.74707C24 14.2961 20.299 17.9971 15.75 17.9971H2.561L5.781 21.2171C5.85095 21.2865 5.90646 21.3691 5.94431 21.4601C5.98216 21.5511 6.0016 21.6487 6.0015 21.7473C6.00141 21.8458 5.98179 21.9434 5.94377 22.0343C5.90575 22.1253 5.85009 22.2078 5.78 22.2771C5.71065 22.347 5.62808 22.4025 5.53709 22.4403C5.4461 22.4781 5.34851 22.4974 5.25 22.4971Z" fill="#F8A766"/>
</g>
<defs>
<clipPath id="clip0">
<rect width="24" height="24" fill="white"/>
</clipPath>
</defs>
</svg>
