<svg width="16" height="16" viewBox="0 0 16 16" fill="none" xmlns="http://www.w3.org/2000/svg">
<path d="M9.00934 13.3379H7.00934" stroke="#C3C6CE" stroke-linecap="round" stroke-linejoin="round"/>
<path d="M9.67598 12.0044H6.34265" stroke="#C3C6CE" stroke-linecap="round" stroke-linejoin="round"/>
<path d="M12.0093 6.00441C12.0101 5.31644 11.8334 4.6399 11.4963 4.04016C11.1592 3.44043 10.6732 2.93777 10.0851 2.58075C9.49701 2.22374 8.82678 2.02444 8.13917 2.00211C7.45156 1.97978 6.76982 2.13517 6.15981 2.45328C5.5498 2.77138 5.03214 3.24145 4.65686 3.81805C4.28158 4.39465 4.06137 5.0583 4.01748 5.74487C3.9736 6.43144 4.10754 7.11772 4.40637 7.73741C4.70519 8.35709 5.15879 8.88923 5.72334 9.28241C5.81162 9.34381 5.88373 9.42565 5.93353 9.52096C5.98334 9.61627 6.00934 9.72221 6.00934 9.82974V10.3377C6.00934 10.4261 6.04446 10.5109 6.10697 10.5734C6.16948 10.636 6.25427 10.6711 6.34267 10.6711H9.676C9.76441 10.6711 9.84919 10.636 9.91171 10.5734C9.97422 10.5109 10.0093 10.4261 10.0093 10.3377V9.82907C10.0093 9.72154 10.0353 9.6156 10.0851 9.52029C10.1349 9.42499 10.2071 9.34314 10.2953 9.28174C10.8245 8.91456 11.2569 8.42462 11.5554 7.85386C11.8539 7.2831 12.0096 6.64851 12.0093 6.00441V6.00441Z" stroke="#C3C6CE" stroke-linecap="round" stroke-linejoin="round"/>
</svg>
