<svg width="24" height="24" viewBox="0 0 24 24" fill="none" xmlns="http://www.w3.org/2000/svg">
<path d="M10.5 23.25C10.3011 23.25 10.1103 23.171 9.96967 23.0303C9.82902 22.8897 9.75 22.6989 9.75 22.5C9.75 22.3011 9.82902 22.1103 9.96967 21.9697C10.1103 21.829 10.3011 21.75 10.5 21.75H13.5C13.6989 21.75 13.8897 21.829 14.0303 21.9697C14.171 22.1103 14.25 22.3011 14.25 22.5C14.25 22.6989 14.171 22.8897 14.0303 23.0303C13.8897 23.171 13.6989 23.25 13.5 23.25H10.5Z" fill="#F8A766"/>
<path d="M10.5 20.25C10.3011 20.25 10.1103 20.171 9.96965 20.0304C9.829 19.8897 9.74998 19.6989 9.74998 19.5V18.343C8.42644 17.8817 7.28065 17.0174 6.47354 15.8715C5.66643 14.7256 5.23854 13.3556 5.24998 11.954C5.26298 8.24602 8.29098 5.22902 12 5.22902C12.8907 5.22723 13.7729 5.40261 14.5952 5.74493C15.4176 6.08725 16.1636 6.58969 16.79 7.22302C17.4164 7.85067 17.9122 8.59629 18.2486 9.41676C18.585 10.2372 18.7554 11.1163 18.75 12.003C18.753 13.3968 18.3211 14.7568 17.5145 15.8935C16.7078 17.0301 15.5666 17.8868 14.25 18.344V19.5C14.25 19.6989 14.171 19.8897 14.0303 20.0304C13.8897 20.171 13.6989 20.25 13.5 20.25H10.5ZM12.75 18.75V17.788C12.7499 17.6214 12.8053 17.4595 12.9074 17.3279C13.0095 17.1962 13.1526 17.1023 13.314 17.061C14.4385 16.7728 15.4353 16.1191 16.1478 15.2026C16.8603 14.2861 17.248 13.1589 17.25 11.998C17.2545 11.3081 17.1221 10.6242 16.8605 9.98587C16.5989 9.3475 16.2133 8.76736 15.726 8.27902C15.2414 7.78818 14.6642 7.39836 14.0279 7.13213C13.3916 6.8659 12.7087 6.72854 12.019 6.72802L11.998 6.35302V6.72802C10.61 6.7309 9.27954 7.28244 8.29662 8.26237C7.31371 9.24229 6.7581 10.5711 6.75098 11.959C6.74593 13.1263 7.13039 14.2619 7.84349 15.186C8.5566 16.1101 9.55759 16.7699 10.688 17.061C10.8488 17.1027 10.9913 17.1966 11.093 17.328C11.1948 17.4594 11.25 17.6208 11.25 17.787V18.749H12.75V18.75Z" fill="#F8A766"/>
<path d="M12 3.75C11.8011 3.75 11.6103 3.67098 11.4697 3.53033C11.329 3.38968 11.25 3.19891 11.25 3V1.5C11.25 1.30109 11.329 1.11032 11.4697 0.96967C11.6103 0.829018 11.8011 0.75 12 0.75C12.1989 0.75 12.3897 0.829018 12.5303 0.96967C12.671 1.11032 12.75 1.30109 12.75 1.5V3C12.75 3.19891 12.671 3.38968 12.5303 3.53033C12.3897 3.67098 12.1989 3.75 12 3.75Z" fill="#F8A766"/>
<path d="M21 11.25C20.8011 11.25 20.6103 11.171 20.4697 11.0303C20.329 10.8897 20.25 10.6989 20.25 10.5C20.25 10.3011 20.329 10.1103 20.4697 9.96967C20.6103 9.82902 20.8011 9.75 21 9.75H22.5C22.6989 9.75 22.8897 9.82902 23.0303 9.96967C23.171 10.1103 23.25 10.3011 23.25 10.5C23.25 10.6989 23.171 10.8897 23.0303 11.0303C22.8897 11.171 22.6989 11.25 22.5 11.25H21Z" fill="#F8A766"/>
<path d="M1.5 12.75C1.30109 12.75 1.11032 12.671 0.96967 12.5303C0.829018 12.3897 0.75 12.1989 0.75 12C0.75 11.8011 0.829018 11.6103 0.96967 11.4697C1.11032 11.329 1.30109 11.25 1.5 11.25H3C3.19891 11.25 3.38968 11.329 3.53033 11.4697C3.67098 11.6103 3.75 11.8011 3.75 12C3.75 12.1989 3.67098 12.3897 3.53033 12.5303C3.38968 12.671 3.19891 12.75 3 12.75H1.5Z" fill="#F8A766"/>
<path d="M19.425 19.425C19.3265 19.4253 19.2289 19.406 19.1379 19.3683C19.0469 19.3305 18.9643 19.275 18.895 19.205L17.834 18.144C17.7299 18.0388 17.6591 17.9052 17.6306 17.76C17.602 17.6147 17.617 17.4643 17.6736 17.3275C17.7302 17.1907 17.8259 17.0737 17.9487 16.9911C18.0715 16.9085 18.216 16.8639 18.364 16.863C18.564 16.863 18.753 16.941 18.894 17.083L19.955 18.144C20.0591 18.2492 20.1299 18.3828 20.1584 18.5281C20.187 18.6733 20.172 18.8238 20.1154 18.9605C20.0588 19.0973 19.9631 19.2144 19.8403 19.297C19.7175 19.3796 19.573 19.4242 19.425 19.425Z" fill="#F8A766"/>
<path d="M5.63601 5.63595C5.5375 5.63625 5.4399 5.61695 5.34892 5.57918C5.25793 5.54141 5.17536 5.48593 5.10601 5.41595L4.04501 4.35495C3.90301 4.21395 3.82501 4.02495 3.82501 3.82495C3.82501 3.62495 3.90301 3.43595 4.04501 3.29495C4.18601 3.15295 4.37501 3.07495 4.57501 3.07495C4.77501 3.07495 4.96401 3.15295 5.10501 3.29495L6.16601 4.35595C6.30801 4.49695 6.38601 4.68595 6.38601 4.88595C6.38601 5.08595 6.30801 5.27495 6.16601 5.41595C6.09667 5.48593 6.0141 5.54141 5.92311 5.57918C5.83212 5.61695 5.73453 5.63625 5.63601 5.63595Z" fill="#F8A766"/>
<path d="M18.364 5.6361C18.2655 5.63639 18.1679 5.6171 18.0769 5.57933C17.9859 5.54156 17.9034 5.48607 17.834 5.4161C17.692 5.2751 17.614 5.0861 17.614 4.8861C17.614 4.6861 17.692 4.4971 17.834 4.3561L18.895 3.2951C18.9642 3.22483 19.0467 3.16903 19.1377 3.13094C19.2287 3.09286 19.3264 3.07324 19.425 3.07324C19.5237 3.07324 19.6213 3.09286 19.7123 3.13094C19.8033 3.16903 19.8858 3.22483 19.955 3.2951C20.097 3.4361 20.175 3.6251 20.175 3.8251C20.175 4.0251 20.097 4.2141 19.955 4.3551L18.894 5.4161C18.8247 5.48607 18.7421 5.54156 18.6511 5.57933C18.5601 5.6171 18.4625 5.63639 18.364 5.6361Z" fill="#F8A766"/>
<path d="M4.57499 19.4249C4.42697 19.4241 4.2825 19.3795 4.15969 19.2969C4.03687 19.2143 3.94117 19.0972 3.88458 18.9604C3.82799 18.8237 3.81302 18.6732 3.84156 18.528C3.87009 18.3827 3.94086 18.2491 4.04499 18.1439L5.10599 17.0829C5.17522 17.0127 5.25772 16.9569 5.34871 16.9188C5.4397 16.8807 5.53735 16.8611 5.63599 16.8611C5.73463 16.8611 5.83228 16.8807 5.92327 16.9188C6.01426 16.9569 6.09677 17.0127 6.16599 17.0829C6.30626 17.2239 6.38501 17.4146 6.38501 17.6134C6.38501 17.8123 6.30626 18.003 6.16599 18.1439L5.10499 19.2049C5.03565 19.2749 4.95308 19.3304 4.86209 19.3682C4.7711 19.4059 4.67351 19.4252 4.57499 19.4249Z" fill="#F8A766"/>
</svg>
