<svg width="32" height="32" viewBox="0 0 32 32" fill="none" xmlns="http://www.w3.org/2000/svg">
<path d="M16.0002 7.00028C15.788 7.00028 15.5845 6.92126 15.4345 6.78061C15.2845 6.63996 15.2002 6.44919 15.2002 6.25027V4.75025C15.2002 4.55134 15.2845 4.36057 15.4345 4.21992C15.5845 4.07926 15.788 4.00024 16.0002 4.00024C16.2124 4.00024 16.4159 4.07926 16.5659 4.21992C16.7159 4.36057 16.8002 4.55134 16.8002 4.75025V6.25027C16.8002 6.44919 16.7159 6.63996 16.5659 6.78061C16.4159 6.92126 16.2124 7.00028 16.0002 7.00028Z" fill="#F8A766"/>
<path d="M4.8 16.0006C4.58783 16.0006 4.38434 15.9215 4.23431 15.7809C4.08429 15.6402 4 15.4495 4 15.2506C4 15.0516 4.08429 14.8609 4.23431 14.7202C4.38434 14.5796 4.58783 14.5005 4.8 14.5005H6.4C6.61217 14.5005 6.81566 14.5796 6.96569 14.7202C7.11571 14.8609 7.2 15.0516 7.2 15.2506C7.2 15.4495 7.11571 15.6402 6.96569 15.7809C6.81566 15.9215 6.61217 16.0006 6.4 16.0006H4.8Z" fill="#F8A766"/>
<path d="M8.37314 9.55752C8.16633 9.55798 7.96743 9.48303 7.81848 9.34852L6.64514 8.2915C6.53104 8.18744 6.45255 8.05389 6.41965 7.90787C6.38676 7.76185 6.40096 7.60995 6.46043 7.47152C6.51991 7.33309 6.62198 7.21437 6.75364 7.13049C6.88531 7.04661 7.04062 7.00136 7.19981 7.00049C7.40781 7.00049 7.60408 7.07449 7.75448 7.20949L8.92781 8.2665C9.00389 8.33463 9.06485 8.41618 9.10718 8.50648C9.14951 8.59678 9.17238 8.69403 9.17446 8.79264C9.17654 8.89126 9.1578 8.98928 9.11931 9.08108C9.08083 9.17287 9.02336 9.25663 8.95021 9.32752C8.87528 9.40004 8.78561 9.45776 8.6865 9.49726C8.58739 9.53676 8.48084 9.55725 8.37314 9.55752Z" fill="#F8A766"/>
<path d="M25.5998 16.0006C25.3876 16.0006 25.1841 15.9215 25.0341 15.7809C24.8841 15.6402 24.7998 15.4495 24.7998 15.2506C24.7998 15.0516 24.8841 14.8609 25.0341 14.7202C25.1841 14.5796 25.3876 14.5005 25.5998 14.5005H27.1998C27.412 14.5005 27.6155 14.5796 27.7655 14.7202C27.9155 14.8609 27.9998 15.0516 27.9998 15.2506C27.9998 15.4495 27.9155 15.6402 27.7655 15.7809C27.6155 15.9215 27.412 16.0006 27.1998 16.0006H25.5998Z" fill="#F8A766"/>
<path d="M23.6267 9.55749C23.4672 9.55711 23.3116 9.51214 23.1796 9.42834C23.0475 9.34454 22.9452 9.22571 22.8856 9.08707C22.8261 8.94844 22.812 8.79629 22.8452 8.6501C22.8784 8.50392 22.9574 8.37034 23.072 8.26647L24.2453 7.20946C24.3209 7.14076 24.4102 7.08678 24.5081 7.05062C24.606 7.01446 24.7106 6.99685 24.8159 6.9988C24.9211 7.00076 25.0249 7.02223 25.1212 7.06199C25.2175 7.10176 25.3045 7.15901 25.3771 7.23046C25.524 7.37402 25.6042 7.56638 25.6 7.76531C25.5958 7.96424 25.5075 8.15348 25.3547 8.29147L24.1813 9.34849C24.0322 9.48273 23.8334 9.55763 23.6267 9.55749Z" fill="#F8A766"/>
<path d="M15.9996 28.0006C15.7875 28.0006 15.584 27.9216 15.434 27.781C15.2839 27.6403 15.1996 27.4496 15.1996 27.2506V25.7506H14.3996C13.7633 25.7501 13.1532 25.5129 12.7032 25.091C12.2532 24.6692 12.0002 24.0972 11.9996 23.5006V21.7426C9.52604 20.4356 7.96337 17.9105 7.99964 15.2445C8.02776 13.2662 8.87791 11.3763 10.3693 9.97661C11.8607 8.57691 13.8757 7.77786 15.9858 7.74939C20.4082 7.82239 23.9218 11.1114 23.9996 15.2365C24.037 17.9065 22.4754 20.4346 19.9996 21.7426V23.5006C19.9991 24.0972 19.746 24.6692 19.2961 25.091C18.8461 25.5129 18.236 25.7501 17.5996 25.7506H16.7996V27.2506C16.7996 27.4496 16.7154 27.6403 16.5653 27.781C16.4153 27.9216 16.2118 28.0006 15.9996 28.0006ZM13.5996 23.5006C13.5996 23.9146 13.958 24.2506 14.3996 24.2506H17.5996C17.8118 24.2506 18.0153 24.1716 18.1653 24.0309C18.3154 23.8903 18.3996 23.6995 18.3996 23.5006V22.0006H13.5996V23.5006ZM19.0962 20.5006C20.1032 19.9915 20.943 19.2345 21.5251 18.3112C22.1072 17.3878 22.4096 16.333 22.3996 15.2605C22.3748 13.6732 21.691 12.1576 20.4934 11.0354C19.2958 9.9132 17.6788 9.27288 15.9858 9.25041C14.2955 9.27736 12.683 9.92088 11.4907 11.0443C10.2983 12.1678 9.61994 13.6827 9.59964 15.2675C9.59083 16.3389 9.89375 17.3923 10.4758 18.3143C11.0579 19.2364 11.8971 19.9922 12.9031 20.5006H15.1996V17.8115L13.0343 15.7815C12.9596 15.712 12.9003 15.6294 12.8598 15.5384C12.8193 15.4473 12.7985 15.3496 12.7985 15.251C12.7985 15.1523 12.8193 15.0547 12.8598 14.9636C12.9003 14.8726 12.9596 14.7899 13.0343 14.7205C13.1847 14.5785 13.3863 14.5005 13.5996 14.5005C13.813 14.5005 14.0146 14.5785 14.165 14.7205L15.9996 16.4405L17.8343 14.7205C17.9081 14.6502 17.9962 14.5944 18.0932 14.5563C18.1903 14.5182 18.2944 14.4986 18.3996 14.4986C18.5049 14.4986 18.609 14.5182 18.7061 14.5563C18.8031 14.5944 18.8911 14.6502 18.965 14.7205C19.1164 14.8615 19.1996 15.0505 19.1996 15.2505C19.1996 15.4505 19.1164 15.6395 18.965 15.7805L16.7996 17.8105V20.5006H19.0962Z" fill="#F8A766"/>
</svg>
