<svg width="24" height="24" viewBox="0 0 24 24" fill="none" xmlns="http://www.w3.org/2000/svg">
<g clip-path="url(#clip0)">
<path d="M10.5 23.997C10.3014 23.996 10.1113 23.9166 9.97086 23.7762C9.83043 23.6358 9.75108 23.4456 9.75003 23.247V14.997H7.02303C6.70789 14.9966 6.39857 14.9122 6.12686 14.7525C5.85516 14.5929 5.63088 14.3638 5.47711 14.0887C5.32333 13.8136 5.2456 13.5025 5.25191 13.1875C5.25823 12.8724 5.34835 12.5647 5.51303 12.296L12.861 0.354016C12.9471 0.215466 13.0758 0.108533 13.2278 0.0492245C13.3797 -0.0100839 13.5468 -0.0185771 13.704 0.0250163C13.8609 0.0700443 13.999 0.164772 14.0974 0.294965C14.1959 0.425159 14.2494 0.583787 14.25 0.747016V8.99702H16.977C17.2922 8.99753 17.6016 9.08202 17.8733 9.24179C18.145 9.40156 18.3693 9.63084 18.5229 9.90603C18.6766 10.1812 18.7542 10.4924 18.7477 10.8075C18.7412 11.1227 18.6509 11.4304 18.486 11.699L11.139 23.64C11.0715 23.7488 10.9774 23.8386 10.8656 23.901C10.7538 23.9635 10.6281 23.9965 10.5 23.997ZM6.79103 13.082C6.76566 13.1233 6.75172 13.1705 6.75064 13.219C6.74957 13.2674 6.76139 13.3152 6.7849 13.3576C6.80842 13.3999 6.84277 13.4352 6.88444 13.4599C6.92611 13.4846 6.9736 13.4977 7.02203 13.498H10.5C10.6989 13.498 10.8897 13.577 11.0304 13.7177C11.171 13.8583 11.25 14.0491 11.25 14.248V20.598L17.209 10.914C17.2278 10.8835 17.2404 10.8496 17.2461 10.8142C17.2517 10.7788 17.2503 10.7427 17.242 10.7078C17.2336 10.673 17.2184 10.6401 17.1973 10.6111C17.1762 10.5822 17.1496 10.5577 17.119 10.539C17.0761 10.5122 17.0266 10.498 16.976 10.498H13.5C13.3011 10.498 13.1103 10.419 12.9697 10.2783C12.829 10.1377 12.75 9.94693 12.75 9.74802V3.39802L6.79103 13.082Z" fill="#F8A766"/>
</g>
<defs>
<clipPath id="clip0">
<rect width="24" height="24" fill="white"/>
</clipPath>
</defs>
</svg>
