<svg width="32" height="32" viewBox="0 0 32 32" fill="none" xmlns="http://www.w3.org/2000/svg">
<path d="M8.0635 28.0006C7.45712 28.0006 6.88534 27.7666 6.45497 27.3414L4.66942 25.5548C4.24085 25.1251 4.00018 24.543 4.00018 23.9361C4.00018 23.3292 4.24085 22.7471 4.66942 22.3174L10.4259 16.5609L9.98234 16.1173C9.83787 15.9738 9.75851 15.7815 9.75851 15.5781C9.75851 15.3746 9.83787 15.1823 9.98234 15.0388C10.1258 14.8944 10.3181 14.815 10.5216 14.815C10.725 14.815 10.9173 14.8944 11.0608 15.0388L11.5044 15.4824L13.9981 12.9877C13.8324 12.5717 13.7919 12.1164 13.8815 11.6777C13.9712 11.239 14.1871 10.8361 14.5027 10.5185L16.8163 8.20385C16.9577 8.06171 17.126 7.94904 17.3113 7.87237C17.4966 7.7957 17.6952 7.75656 17.8958 7.75721C18.3037 7.75721 18.6873 7.91593 18.9742 8.20284L23.7947 13.0243C24.0826 13.3123 24.2414 13.6958 24.2414 14.1028C24.2414 14.5077 24.0857 14.8882 23.8008 15.1752L21.4801 17.4999C21.1628 17.8178 20.7588 18.035 20.3187 18.1244C19.8786 18.2138 19.4219 18.1714 19.0058 18.0025L9.6822 27.3312C9.47005 27.5443 9.21775 27.7131 8.9399 27.828C8.66205 27.9429 8.36417 28.0016 8.0635 28.0006ZM7.53038 26.2588C7.67238 26.3988 7.86411 26.4768 8.0635 26.4755C8.16379 26.4758 8.26315 26.4563 8.35586 26.4181C8.44858 26.3798 8.53282 26.3236 8.60375 26.2527L17.7991 17.0563L14.9463 14.2005L5.74889 23.3989C5.60618 23.5423 5.52606 23.7363 5.52606 23.9386C5.52606 24.1409 5.60618 24.335 5.74889 24.4784L7.5141 26.2446L7.53038 26.2588ZM15.5822 11.5979C15.4393 11.741 15.359 11.935 15.359 12.1372C15.359 12.3394 15.4393 12.5333 15.5822 12.6764L19.3232 16.4225C19.3939 16.4933 19.478 16.5494 19.5706 16.5875C19.6631 16.6256 19.7623 16.6449 19.8624 16.6443C19.9627 16.6446 20.0621 16.6251 20.1548 16.5868C20.2475 16.5486 20.3317 16.4924 20.4027 16.4215L22.7163 14.1038L17.8958 9.28231L15.5822 11.5979Z" fill="#F8A766"/>
<path d="M23.4202 9.34184C23.3199 9.34214 23.2206 9.32251 23.1281 9.28408C23.0355 9.24566 22.9515 9.1892 22.8809 9.11801C22.7365 8.97455 22.6571 8.78226 22.6571 8.57878C22.6571 8.3753 22.7365 8.18301 22.8809 8.03955L25.1701 5.75038C25.2405 5.67889 25.3245 5.62211 25.4171 5.58336C25.5096 5.54461 25.609 5.52466 25.7093 5.52466C25.8097 5.52466 25.909 5.54461 26.0016 5.58336C26.0942 5.62211 26.1781 5.67889 26.2486 5.75038C26.393 5.89383 26.4724 6.08612 26.4724 6.2896C26.4724 6.49309 26.393 6.68538 26.2486 6.82883L23.9594 9.11801C23.8888 9.18916 23.8048 9.24558 23.7122 9.284C23.6197 9.32243 23.5204 9.34208 23.4202 9.34184Z" fill="#F8A766"/>
<path d="M24.9468 11.631C24.7659 11.6306 24.591 11.5659 24.4534 11.4485C24.3158 11.3312 24.2243 11.1687 24.1953 10.9901C24.1664 10.8116 24.2018 10.6285 24.2953 10.4736C24.3887 10.3188 24.5342 10.2021 24.7057 10.1446L26.9949 9.3815C27.09 9.34936 27.1905 9.33637 27.2907 9.3433C27.3908 9.35023 27.4886 9.37694 27.5784 9.42187C27.6681 9.4668 27.7481 9.52908 27.8137 9.6051C27.8793 9.68112 27.9291 9.76937 27.9604 9.86477C27.9925 9.9598 28.0055 10.0603 27.9985 10.1603C27.9916 10.2604 27.9649 10.3581 27.9199 10.4478C27.875 10.5375 27.8127 10.6174 27.7367 10.6829C27.6607 10.7484 27.5725 10.7981 27.4771 10.8293L25.1879 11.5923C25.1101 11.6179 25.0287 11.631 24.9468 11.631Z" fill="#F8A766"/>
<path d="M21.1314 7.81609C20.9895 7.8168 20.8502 7.77758 20.7295 7.70292C20.6088 7.62826 20.5115 7.52117 20.4487 7.39387C20.4038 7.30438 20.377 7.20691 20.3699 7.10704C20.3627 7.00718 20.3753 6.90689 20.407 6.81191L21.1701 4.52273C21.2014 4.42731 21.2514 4.33905 21.3171 4.26306C21.3828 4.18707 21.4629 4.12486 21.5527 4.08001C21.6426 4.03517 21.7405 4.00858 21.8407 4.0018C21.9409 3.99501 22.0415 4.00816 22.1366 4.04048C22.2318 4.07186 22.3198 4.12176 22.3957 4.1873C22.4715 4.25285 22.5336 4.33274 22.5784 4.42239C22.6232 4.51203 22.6499 4.60966 22.6568 4.70965C22.6638 4.80963 22.6509 4.91001 22.6188 5.00498L21.8558 7.29416C21.8051 7.44621 21.7079 7.57845 21.5779 7.67213C21.4479 7.76582 21.2917 7.81618 21.1314 7.81609Z" fill="#F8A766"/>
</svg>
