<svg width="24" height="24" viewBox="0 0 24 24" fill="none" xmlns="http://www.w3.org/2000/svg">
<g clip-path="url(#clip0)">
<path d="M10.256 24.0029C10.1398 24.0025 10.0252 23.9752 9.92132 23.9232C9.8174 23.8712 9.72693 23.7958 9.65702 23.7029L5.80702 18.5709C5.52435 18.1928 5.36543 17.7367 5.352 17.2648C5.33858 16.7929 5.4713 16.3284 5.73202 15.9349C5.90418 15.6769 6.12709 15.4566 6.38716 15.2876C6.64723 15.1185 6.93902 15.0042 7.24471 14.9517C7.55041 14.8991 7.86361 14.9093 8.16522 14.9817C8.46683 15.0542 8.75053 15.1873 8.99902 15.3729L9.50102 15.7499V7.50592C9.50102 6.90852 9.73833 6.33559 10.1608 5.91316C10.5832 5.49073 11.1561 5.25342 11.7535 5.25342C12.3509 5.25342 12.9238 5.49073 13.3463 5.91316C13.7687 6.33559 14.006 6.90852 14.006 7.50592V12.9039L17.592 13.7019C18.4811 13.9012 19.2676 14.4167 19.8051 15.1525C20.3426 15.8883 20.5945 16.7943 20.514 17.7019L20.003 23.3239C19.9869 23.5106 19.9012 23.6845 19.7628 23.8109C19.6243 23.9372 19.4434 24.0069 19.256 24.0059L10.256 24.0029ZM18.571 22.5059L19.02 17.5659C19.0686 17.0213 18.9176 16.4776 18.5951 16.0361C18.2726 15.5945 17.8006 15.2853 17.267 15.1659L13.093 14.2379C12.9261 14.2017 12.7767 14.1092 12.6698 13.9759C12.5629 13.8427 12.5051 13.6767 12.506 13.5059V7.50592C12.4989 7.31109 12.4165 7.12661 12.2762 6.99129C12.1358 6.85597 11.9485 6.78035 11.7535 6.78035C11.5586 6.78035 11.3712 6.85597 11.2309 6.99129C11.0905 7.12661 11.0081 7.31109 11.001 7.50592V17.2529C11.0015 17.3516 10.9825 17.4493 10.945 17.5406C10.9075 17.6318 10.8523 17.7147 10.7825 17.7844C10.7128 17.8542 10.6299 17.9094 10.5387 17.9469C10.4474 17.9844 10.3497 18.0034 10.251 18.0029C10.0885 18.0027 9.93031 17.9501 9.80002 17.8529L8.10002 16.5749L8.06502 16.5499C7.91154 16.4455 7.72591 16.3992 7.5414 16.4193C7.35688 16.4394 7.18554 16.5245 7.05809 16.6594C6.93063 16.7943 6.85539 16.9702 6.84585 17.1556C6.8363 17.3409 6.89309 17.5236 7.00602 17.6709L10.631 22.5029L18.571 22.5059Z" fill="#F8A766"/>
<path d="M6.50599 14.3559C6.30913 14.3565 6.12003 14.2792 5.97999 14.1409C2.73399 10.9549 2.68499 5.7209 5.87099 2.4739C6.63732 1.68922 7.55349 1.06651 8.56511 0.642729C9.57674 0.218943 10.6632 0.00272008 11.76 0.00689527C13.937 0.00689527 15.989 0.843895 17.538 2.3649C18.8443 3.64652 19.6872 5.32618 19.9342 7.13945C20.1811 8.95273 19.818 10.7966 18.902 12.3809C18.8017 12.5521 18.638 12.6769 18.4463 12.7282C18.2546 12.7795 18.0504 12.7532 17.878 12.6549C17.7059 12.5552 17.5804 12.3912 17.529 12.1991C17.4776 12.0069 17.5046 11.8022 17.604 11.6299C18.3532 10.3336 18.6501 8.82499 18.4481 7.34145C18.2461 5.85792 17.5565 4.48365 16.488 3.4349C15.228 2.19425 13.5293 1.50103 11.761 1.5059C10.8636 1.50251 9.97469 1.67949 9.14704 2.02633C8.31939 2.37316 7.56987 2.88277 6.94299 3.5249C5.69093 4.80368 4.99724 6.5269 5.01411 8.3165C5.03098 10.1061 5.75704 11.8159 7.03299 13.0709C7.13929 13.1753 7.21207 13.3091 7.24204 13.455C7.27201 13.601 7.25782 13.7526 7.20128 13.8905C7.14474 14.0284 7.0484 14.1463 6.92456 14.2292C6.80073 14.312 6.65501 14.3562 6.50599 14.3559Z" fill="#F8A766"/>
</g>
<defs>
<clipPath id="clip0">
<rect width="24" height="24" fill="white"/>
</clipPath>
</defs>
</svg>
