<svg width="24" height="24" viewBox="0 0 24 24" fill="none" xmlns="http://www.w3.org/2000/svg">
<path d="M3 24C2.40343 23.9995 1.83144 23.7622 1.40959 23.3404C0.987753 22.9186 0.75053 22.3466 0.75 21.75V8.25C0.75 7.88 0.842 7.513 1.017 7.188L3.405 1.357C3.58112 0.955144 3.87006 0.613028 4.23679 0.372155C4.60351 0.131283 5.03225 0.00200326 5.471 0L18.526 0C19.418 0 20.225 0.525 20.586 1.337L22.983 7.187C23.157 7.513 23.25 7.88 23.25 8.25V21.75C23.2495 22.3466 23.0122 22.9186 22.5904 23.3404C22.1686 23.7622 21.5966 23.9995 21 24H3ZM3 7.5C2.80109 7.5 2.61032 7.57902 2.46967 7.71967C2.32902 7.86032 2.25 8.05109 2.25 8.25V21.75C2.25 22.164 2.586 22.5 3 22.5H21C21.1989 22.5 21.3897 22.421 21.5303 22.2803C21.671 22.1397 21.75 21.9489 21.75 21.75V8.25C21.75 8.05109 21.671 7.86032 21.5303 7.71967C21.3897 7.57902 21.1989 7.5 21 7.5H3ZM20.875 6L19.206 1.925C19.1457 1.79678 19.0498 1.68857 18.9298 1.61323C18.8098 1.53789 18.6707 1.49859 18.529 1.5H12.75V6H20.875ZM11.25 6V1.5H5.472C5.32675 1.49993 5.1846 1.54204 5.06282 1.62121C4.94104 1.70038 4.84488 1.81321 4.786 1.946L3.125 6H11.25Z" fill="#F8A766"/>
<path d="M14.25 19.5C14.0511 19.5 13.8603 19.421 13.7197 19.2803C13.579 19.1397 13.5 18.9489 13.5 18.75C13.5 18.5511 13.579 18.3603 13.7197 18.2197C13.8603 18.079 14.0511 18 14.25 18H18.75C18.9489 18 19.1397 18.079 19.2803 18.2197C19.421 18.3603 19.5 18.5511 19.5 18.75C19.5 18.9489 19.421 19.1397 19.2803 19.2803C19.1397 19.421 18.9489 19.5 18.75 19.5H14.25Z" fill="#F8A766"/>
</svg>
