<svg width="32" height="32" viewBox="0 0 32 32" fill="none" xmlns="http://www.w3.org/2000/svg">
<path d="M17.4219 6.34375C18.1726 6.34375 18.7812 5.73514 18.7812 4.98438C18.7812 4.23361 18.1726 3.625 17.4219 3.625C16.6711 3.625 16.0625 4.23361 16.0625 4.98438C16.0625 5.73514 16.6711 6.34375 17.4219 6.34375Z" fill="#F8A766"/>
<path d="M20.1406 3.625C20.8914 3.625 21.5 3.01639 21.5 2.26562C21.5 1.51486 20.8914 0.90625 20.1406 0.90625C19.3899 0.90625 18.7812 1.51486 18.7812 2.26562C18.7812 3.01639 19.3899 3.625 20.1406 3.625Z" fill="#F8A766"/>
<path d="M14.7031 2.71875C15.4539 2.71875 16.0625 2.11014 16.0625 1.35937C16.0625 0.608613 15.4539 0 14.7031 0C13.9524 0 13.3438 0.608613 13.3438 1.35937C13.3438 2.11014 13.9524 2.71875 14.7031 2.71875Z" fill="#F8A766"/>
<path d="M10.6854 29C10.2368 29.0002 9.7952 28.8891 9.40018 28.6765C9.00516 28.4639 8.66911 28.1565 8.42221 27.782L7.45675 26.3344C7.15859 25.888 6.99962 25.3632 7 24.8264V13.3231C7 12.708 7.21146 12.1039 7.59692 11.6242L9.64625 9.0625H8.8125C8.57215 9.0625 8.34164 8.96702 8.17168 8.79707C8.00173 8.62711 7.90625 8.39661 7.90625 8.15625C7.90625 7.9159 8.00173 7.68539 8.17168 7.51544C8.34164 7.34548 8.57215 7.25 8.8125 7.25H11.5313L9.9 5.075C9.75579 4.88272 9.69387 4.64103 9.72786 4.40309C9.76185 4.16515 9.88897 3.95047 10.0813 3.80625C10.2735 3.66204 10.5152 3.60012 10.7532 3.63411C10.9911 3.6681 11.2058 3.79522 11.35 3.9875L13.7969 7.25H21.5C21.7404 7.25 21.9709 7.34548 22.1408 7.51544C22.3108 7.68539 22.4062 7.9159 22.4062 8.15625C22.4062 8.39661 22.3108 8.62711 22.1408 8.79707C21.9709 8.96702 21.7404 9.0625 21.5 9.0625H20.6662L22.7156 11.6242C23.0998 12.1039 23.3125 12.7068 23.3125 13.3231V24.8264C23.3137 25.3665 23.1554 25.8898 22.8558 26.3393L21.8891 27.7892C21.6411 28.162 21.3049 28.4676 20.9102 28.6788C20.5155 28.8901 20.0747 29.0004 19.6271 29H10.6854ZM9.01188 12.7564C8.88283 12.9171 8.8125 13.117 8.8125 13.3231V24.8264C8.8125 25.0053 8.86567 25.1793 8.96475 25.3291L9.93142 26.7791C10.1006 27.0353 10.3833 27.1875 10.6878 27.1875H19.6271C19.7763 27.1876 19.9232 27.1508 20.0548 27.0804C20.1863 27.01 20.2984 26.9081 20.3811 26.7839L21.3478 25.3339C21.4475 25.1844 21.5005 25.0086 21.5 24.8288V13.3231C21.5 13.1174 21.4297 12.9178 21.3006 12.7576L18.3463 9.0625H11.9675L9.01188 12.7564Z" fill="#F8A766"/>
<path d="M15.1564 24.469C14.9957 24.4697 14.8378 24.4276 14.6988 24.347C14.5598 24.2664 14.4448 24.1502 14.3656 24.0104C14.2865 23.8705 14.246 23.7121 14.2485 23.5515C14.2509 23.3908 14.2961 23.2337 14.3795 23.0963L16.2741 19.9377H12.4377C12.2671 19.9372 12.1001 19.8888 11.9557 19.798C11.8113 19.7072 11.6953 19.5777 11.6208 19.4242C11.5475 19.2703 11.5188 19.0989 11.538 18.9295C11.5573 18.7601 11.6236 18.5995 11.7296 18.466L15.3546 13.9347C15.4286 13.8413 15.5203 13.7635 15.6246 13.7057C15.7288 13.648 15.8434 13.6115 15.9619 13.5983C16.0803 13.5852 16.2002 13.5957 16.3146 13.6291C16.4289 13.6626 16.5355 13.7184 16.6282 13.7934C16.8156 13.9439 16.9357 14.1626 16.9622 14.4016C16.9887 14.6405 16.9194 14.8802 16.7695 15.0681L14.3227 18.1252H17.8752C18.0354 18.1256 18.1927 18.1684 18.331 18.2493C18.4693 18.3302 18.5838 18.4462 18.6627 18.5857C18.7416 18.7251 18.7822 18.883 18.7804 19.0432C18.7785 19.2034 18.7343 19.3603 18.6521 19.4979L15.9334 24.0291C15.8524 24.1629 15.7384 24.2736 15.6024 24.3506C15.4663 24.4276 15.3128 24.4684 15.1564 24.469Z" fill="#F8A766"/>
</svg>
